<?xml version="1.0" encoding="UTF-8"?>
<svg id="Layer_1" data-name="Layer 1" xmlns="http://www.w3.org/2000/svg" xmlns:xlink="http://www.w3.org/1999/xlink" viewBox="0 0 550 550">
  <defs>
    <style>
      .cls-1 {
        fill: url(#linear-gradient-3);
      }

      .cls-2 {
        fill: url(#linear-gradient-2);
      }

      .cls-3 {
        fill: #13ddd1;
      }

      .cls-4 {
        fill: url(#linear-gradient);
      }

      .cls-5 {
        fill: #1499b8;
      }
    </style>
    <linearGradient id="linear-gradient" x1="176.09" y1="399.38" x2="383.63" y2="147.88" gradientTransform="translate(0 552) scale(1 -1)" gradientUnits="userSpaceOnUse">
      <stop offset="0" stop-color="#13ddd1"/>
      <stop offset="1" stop-color="#0a72f5"/>
    </linearGradient>
    <linearGradient id="linear-gradient-2" x1="161.66" y1="330.41" x2="391.35" y2="100.79" gradientTransform="translate(0 552) scale(1 -1)" gradientUnits="userSpaceOnUse">
      <stop offset="0" stop-color="#11ccd4"/>
      <stop offset="1" stop-color="#0a60f0"/>
    </linearGradient>
    <linearGradient id="linear-gradient-3" x1="165.4" y1="459.09" x2="372.88" y2="228.6" gradientTransform="translate(0 552) scale(1 -1)" gradientUnits="userSpaceOnUse">
      <stop offset="0" stop-color="#14e8d6"/>
      <stop offset="1" stop-color="#0d8ee6"/>
    </linearGradient>
  </defs>
  <path class="cls-4" d="M50.79,254.04c17.82,1.18,33.47,4.26,49.43,13.56,14.28,8.32,27.57,29.32,44.04,33.3,3.03.73,8.58-1.59,10.89-3.92,32.86-33.09,22.74-141.65,85.53-142.63,10.66.75,18.49,4.71,25.44,12.85,8.17,9.57,13.03,20,17.39,31.84,7.46,20.28,12.79,43.19,18.57,63.69,3.18,11.26,20,79.08,29.49,81.34,2.38-.57,3.94-2.64,5.13-4.75,19.79-35.21,17.53-103.37,63.08-117.44,12.24-3.78,28.47.88,39.18,7.57,12.12,7.57,22.74,17.66,36.51,22.59,6.33,2.44,14.18,3.06,20.84,3.07,12.49.01,34.85-4.67,38.17,12.64,4.27,22.28-15.53,24.72-31.8,24.24-20.41-.6-38.97-2.07-56.45-13.4-4.58-3.02-8.9-6.46-13.34-9.67-6.07-4.4-14.31-11.25-22.27-10.02-4.24.65-8.16,4.91-10.19,8.43-19.18,32.57-18.53,103.14-60.2,116.38-8.8,2.36-19.21,0-26.69-4.71-9.07-5.69-15.75-14.65-20.56-24.09-5.58-10.95-9.48-23.05-12.81-34.88-8.42-29.92-15.28-60.39-24.9-89.97-4.13-12.7-8.67-27.4-17.51-37.56-7.8,7.7-10.5,16.63-14.12,26.81-16.66,46.84-16.81,103.03-71.26,121.34-13.18,4.26-20,4.9-33.9,3.44-.98-1.1-7.02-4.13-8.76-5.32-11.78-8.09-24.26-24.84-36.14-31.91l-1.11.29c-2.98-7.94-21.1-12.14-28.4-14.09-8.51-1.49-15.36-1.73-22.85-6.08-4.74-4.27-6.08-8.43-5.96-14.8.36-18.56,21.9-18.68,35.52-18.12Z"/>
  <path class="cls-5" d="M44.09,293.03c3.74-3.15,8.8-1.57,13.49-1.49,36.96.62,49.34,44.75,85.86,45.82,2.84.08,7.08,1.18,8.95,3.27-13.18,4.26-20,4.9-33.9,3.44-.98-1.1-7.02-4.13-8.76-5.32-11.78-8.09-24.26-24.84-36.14-31.91l-1.11.29c-2.98-7.94-21.1-12.14-28.4-14.09Z"/>
  <path class="cls-3" d="M21.24,286.95c-4.74-4.27-6.08-8.43-5.96-14.8.36-18.56,21.9-18.68,35.52-18.12,1.1,2.11,1.88,3.64,2.8,5.86-3.99,7.59-17.51,16.18-23.91,22.5-2.79,2.76-5.65,2.77-8.44,4.56Z"/>
  <path class="cls-2" d="M446.04,294.74c13.16,5.87,18.48,7.39,32.69,9.84-1.28,26.51-17.81,65.94-32.51,88.22-62.82,95.24-185.05,123.08-280.95,60.3-36.74-24.18-64.9-59.33-80.5-100.45-5.96-16.01-8.87-29.07-12.29-45.53l1.11-.29c11.88,7.07,24.36,23.82,36.14,31.91,1.73,1.19,7.78,4.22,8.76,5.32,5.12,12.93,13.7,27.31,22,38.45,26.95,36.31,67.15,60.51,111.85,67.33,98.37,14.31,179.96-60,193.7-155.1Z"/>
  <path class="cls-1" d="M265.44,63.17c41.04-2.5,83.67,9.27,118.29,31.25,37.47,23.86,66.22,59.18,81.99,100.71,5.18,13.81,8.04,25.88,11.21,40.07-8.37-4.3-17.73-11.91-25.61-17.27-6.36-4.32-11.27-7.08-18.02-10.72-12.9-25.08-19.14-39.74-40.59-60.87-35.56-35.03-77.35-47.84-126.26-47.76-29.17-.17-67.7,15.25-90.62,32.8-41.14,31.5-62.36,71.59-69.84,121.98-12.85-5.92-19.36-9.13-33.62-11.53,17.85-101.99,89.12-170.08,193.08-178.67Z"/>
</svg>